<svg width="147" height="136" viewBox="0 0 147 136" fill="none" xmlns="http://www.w3.org/2000/svg">
<g id="Group">
<g id="Group_2">
<path id="Vector" d="M86.1955 105.424C74.5023 101.283 62.4751 100.646 51.4501 103.513C43.766 105.424 36.416 109.246 29.7342 114.023L25.0568 117.845L23.7205 119.119L26.7273 121.667C27.0613 121.667 27.0614 121.986 27.3955 122.304C28.0637 122.941 28.7319 123.26 29.7342 123.897L31.7386 125.171L33.7432 123.578C34.0773 123.26 34.7455 122.623 35.4136 122.304C41.4273 117.527 48.1091 114.342 55.125 112.749C64.1454 110.52 73.8341 110.838 83.5227 114.342C91.5409 117.208 107.911 120.712 127.623 112.749L128.291 112.431L129.293 111.475C129.293 111.157 129.627 111.157 129.961 110.838C131.632 108.927 133.302 107.016 134.639 104.787L141.321 94.9133L130.63 100.646C114.927 108.927 100.561 110.52 86.1955 105.424Z" fill="#FFFDFF"/>
<path id="Vector_2" d="M40.425 71.0257C49.4454 68.7962 59.1341 69.1147 68.8227 72.6182C79.5136 76.4403 106.909 81.8548 137.645 55.4192L142.657 50.6417L142.991 50.3232L144.327 49.0492L143.659 47.4567C143.325 46.1827 142.657 44.5902 141.989 42.9977L140.318 38.5386L136.977 41.7236C136.643 42.3606 135.975 42.6791 135.307 43.3161C120.607 57.6486 97.8886 72.2998 71.8295 63.3817C60.1363 59.2412 48.1091 58.6042 37.0841 61.4707C26.3932 64.3372 17.0386 69.7517 8.35223 77.3958V77.0772L3.34086 82.1733C3.34086 82.4918 3.00683 82.4918 2.67274 82.8103L1.67041 83.7658L2.00452 85.0398C2.33861 86.6323 3.00677 88.2248 3.34086 89.8173L5.34543 94.9133L8.68634 90.7729C9.02043 90.1359 9.68859 89.8174 10.0227 89.1804C17.0386 83.1288 26.7272 74.5293 40.425 71.0257Z" fill="#FFFDFF"/>
<path id="Vector_3" d="M8.01826 65.2928C15.7024 57.6487 24.3887 52.8712 33.7432 50.3232C42.7637 48.0937 52.4523 48.4122 62.1409 51.9157C92.2091 62.4262 118.268 45.2272 129.627 35.9906L133.97 31.8501L135.641 30.5761L134.305 28.6651C133.302 27.7096 132.634 26.4356 131.632 25.1616L129.627 22.6135L127.289 24.8431C126.955 25.1616 126.286 25.7986 125.952 26.1171C111.92 38.8571 90.2046 51.9157 65.4818 42.9977C53.7887 38.8572 41.7614 38.2201 30.7364 41.0867C23.7205 42.9977 17.0387 46.1827 10.3568 50.3232L3.34091 55.7377C2.67273 56.3747 2.33864 56.6932 1.67045 57.3302L1.00233 57.9672V58.9227C0.668243 61.1523 0.668202 63.3818 0.334111 65.2928L0 73.2553L5.67959 67.5222C6.34777 66.8852 7.01599 65.9298 8.01826 65.2928Z" fill="#FFFDFF"/>
<path id="Vector_4" d="M95.884 127.082L95.2158 128.993L95.884 127.082C94.8818 126.763 94.2136 126.445 93.2113 126.126C81.5182 121.986 69.4908 121.349 58.4658 124.216C56.1272 124.853 53.7886 125.489 51.45 126.445L43.4317 129.948L41.4272 130.904L48.1091 133.134C50.1136 133.771 52.1181 134.408 54.1227 135.045L55.1249 135.363L56.1272 135.045C57.1295 134.726 58.1318 134.089 59.134 134.089C59.8022 134.089 60.4704 133.771 61.1386 133.452C69.1568 131.541 77.8431 131.541 87.1976 134.407C88.1999 134.726 88.8682 135.045 89.8704 135.363L91.5409 136L92.5431 135.681C94.8818 135.044 97.5545 134.408 99.559 133.452L108.914 130.267L99.2249 128.037C98.2227 127.719 96.8863 127.4 95.884 127.082Z" fill="#FFFDFF"/>
<path id="Vector_5" d="M147 61.1522L141.989 65.9297C141.321 66.5667 140.652 67.2037 139.984 67.8407C126.287 80.2623 104.237 93.6393 79.5138 84.7213C67.8206 80.5807 55.7934 79.9438 44.7683 82.8103C34.4115 85.6768 25.0569 90.7728 16.7046 98.4169L12.3615 102.876L11.0251 104.468L12.3615 106.379C13.3638 107.653 14.032 108.609 14.7002 109.883L16.7046 112.749L19.0433 109.883C19.3774 109.564 20.0456 108.927 20.3797 108.609C28.3978 100.328 37.0842 95.2318 47.1069 92.6838C56.1274 90.4543 65.816 90.7728 75.5047 94.2763C83.8569 97.1428 92.5433 98.0984 101.23 97.1429C116.598 95.5504 131.966 87.2694 143.325 78.0328C143.993 77.3958 144.661 77.0773 145.33 76.4403L146.332 75.4847V74.5293C146.332 72.6183 146.666 70.3888 146.666 68.4778L147 61.1522Z" fill="#FFFDFF"/>
<path id="Vector_6" d="M20.0456 31.8501L19.0433 29.9391L20.0456 31.8501C22.0501 30.8946 24.3888 30.2576 26.3934 29.6206C35.4138 27.3911 45.1025 27.7096 54.7911 31.2131C61.1388 33.4426 67.4865 34.3981 74.5024 34.3981C88.5343 34.3981 102.566 29.6206 115.596 20.3841L120.607 16.562L122.277 15.288L119.271 13.0585C118.268 12.103 116.932 11.1475 115.596 10.5105L113.591 9.23651L111.921 10.5105C111.252 10.829 110.918 11.466 110.25 11.7845C92.5433 24.5245 74.8365 28.0281 58.132 21.9766C46.1047 17.836 34.0774 16.8805 22.0501 20.3841C21.0478 20.7026 20.0456 21.021 18.7092 21.3395L18.0411 21.658L17.0388 22.6135C17.0388 22.932 16.7047 22.932 16.3706 23.2505C15.0343 25.1616 13.3638 26.7541 12.0274 28.6651L5.67969 37.9016L16.0365 32.8056C17.707 32.8056 19.0433 32.1686 20.0456 31.8501Z" fill="#FFFDFF"/>
<path id="Vector_7" d="M47.441 10.192L48.4432 10.5105C52.7864 12.103 59.4682 13.6955 67.8205 13.6955C76.5069 13.6955 84.8592 11.7845 93.2114 8.59948L103.568 3.82196L96.5524 1.59251C94.5478 0.955504 92.5432 0.318501 90.2045 0H89.2023L88.2001 0.318424C87.1978 0.636925 86.1955 1.27401 85.1932 1.59251C75.1705 5.09602 65.1477 5.73302 55.4591 3.18501C54.4568 2.86651 53.4546 2.54795 52.4523 2.22945L51.4501 1.91093L50.4477 2.22945C48.4432 2.86645 46.4387 3.50349 44.4342 4.459L36.75 7.64401L44.7683 9.87346C45.4364 9.55496 46.4387 9.87348 47.441 10.192Z" fill="#FFFDFF"/>
</g>
</g>
</svg>
